<svg width="16" height="17" viewBox="0 0 16 17" fill="none" xmlns="http://www.w3.org/2000/svg">
<path d="M5.33387 15.3081H10.6672C13.3472 15.3081 13.8272 14.2348 13.9672 12.9281L14.4672 7.59481C14.6472 5.96815 14.1805 4.64148 11.3339 4.64148H4.6672C1.82054 4.64148 1.35387 5.96815 1.53387 7.59481L2.03387 12.9281C2.17387 14.2348 2.65387 15.3081 5.33387 15.3081Z" stroke="#747474" stroke-width="1.5" stroke-miterlimit="10" stroke-linecap="round" stroke-linejoin="round"/>
<path d="M5.33398 4.64146V4.10813C5.33398 2.92813 5.33398 1.97479 7.46732 1.97479H8.53398C10.6673 1.97479 10.6673 2.92813 10.6673 4.10813V4.64146" stroke="#747474" stroke-width="1.5" stroke-miterlimit="10" stroke-linecap="round" stroke-linejoin="round"/>
<path d="M9.33268 9.30815V9.97481C9.33268 9.98148 9.33268 9.98148 9.33268 9.98815C9.33268 10.7148 9.32602 11.3081 7.99935 11.3081C6.67935 11.3081 6.66602 10.7215 6.66602 9.99481V9.30815C6.66602 8.64148 6.66602 8.64148 7.33268 8.64148H8.66602C9.33268 8.64148 9.33268 8.64148 9.33268 9.30815Z" stroke="#747474" stroke-width="1.5" stroke-miterlimit="10" stroke-linecap="round" stroke-linejoin="round"/>
<path d="M14.434 7.97479C12.894 9.09479 11.134 9.76146 9.33398 9.98813" stroke="#747474" stroke-width="1.5" stroke-miterlimit="10" stroke-linecap="round" stroke-linejoin="round"/>
<path d="M1.74609 8.15479C3.24609 9.18145 4.93943 9.80145 6.66609 9.99478" stroke="#747474" stroke-width="1.5" stroke-miterlimit="10" stroke-linecap="round" stroke-linejoin="round"/>
</svg>
